<svg id="logo" xmlns="http://www.w3.org/2000/svg" width="150" height="150" viewBox="0 0 150 150">
  <g id="Rectangle_35" data-name="Rectangle 35" fill="none" stroke="#000" stroke-width="5">
    <rect width="150" height="150" rx="75" stroke="none"/>
    <rect x="2.5" y="2.5" width="145" height="145" rx="72.5" fill="none"/>
  </g>
  <g id="logo" transform="translate(25.5 20.5)">
    <line id="Line_16" data-name="Line 16" y1="100" x2="29" fill="none" stroke="#000" stroke-width="5"/>
    <line id="Line_17" data-name="Line 17" x1="29" y2="100" transform="translate(44.147)" fill="none" stroke="#000" stroke-width="5"/>
    <line id="Line_18" data-name="Line 18" x1="29" y1="100" transform="translate(26.397)" fill="none" stroke="#000" stroke-width="5"/>
    <line id="Line_19" data-name="Line 19" x1="29" y1="100" transform="translate(71)" fill="none" stroke="#000" stroke-width="5"/>
    <g id="Path_9" data-name="Path 9" transform="translate(17.949 8.5)">
      <path d="M 9.5 38.51313781738281 L 0.6046196222305298 35.66841506958008 L 9.5 1.959604024887085 L 18.3953800201416 35.66841506958008 L 9.5 38.51313781738281 Z" stroke="none"/>
      <path d="M 9.5 3.919193267822266 L 1.209236145019531 35.33682250976563 L 9.5 37.98819351196289 L 17.79076385498047 35.33682250976563 L 9.5 3.919193267822266 M 9.5 3.814697265625e-06 L 19 36.00000381469727 L 9.5 39.03808212280273 L 0 36.00000381469727 L 9.5 3.814697265625e-06 Z" stroke="none" fill="#000"/>
    </g>
    <g id="Path_10" data-name="Path 10" transform="translate(62.555 8.5)">
      <path d="M 9.75244140625 38.51438522338867 L 0.6085341572761536 35.66587829589844 L 9.75244140625 1.91220486164093 L 18.89634895324707 35.66587829589844 L 9.75244140625 38.51438522338867 Z" stroke="none"/>
      <path d="M 9.75244140625 3.824443817138672 L 1.217079162597656 35.33174514770508 L 9.75244140625 37.99068069458008 L 18.28780364990234 35.33174514770508 L 9.75244140625 3.824443817138672 M 9.75244140625 3.814697265625e-06 L 19.50488090515137 36.00000381469727 L 9.75244140625 39.03808212280273 L 1.9073486328125e-06 36.00000381469727 L 9.75244140625 3.814697265625e-06 Z" stroke="none" fill="#000"/>
    </g>
    <g id="Path_11" data-name="Path 11" transform="translate(61.315 76.29) rotate(180)">
      <path d="M 11.69140529632568 38.92349243164063 L 0.6375653743743896 36.02147674560547 L 11.69140529632568 1.633844017982483 L 22.74525451660156 36.02147674560547 L 11.69140529632568 38.92349243164063 Z" stroke="none"/>
      <path d="M 11.69140529632568 3.267684936523438 L 1.275119781494141 35.67191314697266 L 11.69140529632568 38.40653991699219 L 22.10768127441406 35.67191314697266 L 11.69140529632568 3.267684936523438 M 11.69140529632568 -3.814697265625e-06 L 23.38280487060547 36.37103652954102 L 11.69140529632568 39.44042587280273 L -3.814697265625e-06 36.37103652954102 L 11.69140529632568 -3.814697265625e-06 Z" stroke="none" fill="#000"/>
    </g>
  </g>
</svg>
